<svg xmlns="http://www.w3.org/2000/svg" xmlns:xlink="http://www.w3.org/1999/xlink" viewBox="0 0 151 154">
  <defs>
    <style>
      .cls-1 {
        isolation: isolate;
      }

      .cls-2 {
        fill: #e79854;
      }

      .cls-3 {
        fill: #e3836c;
      }

      .cls-4 {
        fill-rule: evenodd;
        fill: url(#무제_그라디언트_13);
      }

      .cls-5 {
        mix-blend-mode: multiply;
      }

      .cls-6 {
        fill: #bc6a31;
      }

      .cls-7 {
        fill: #fff;
      }

      .cls-8 {
        fill: #29151a;
      }
    </style>
    <linearGradient id="무제_그라디언트_13" data-name="무제 그라디언트 13" x1="16.2" y1="128.16" x2="127.29" y2="17.07" gradientUnits="userSpaceOnUse">
      <stop offset="0" stop-color="#7e372a"/>
      <stop offset="0.46" stop-color="#7f392c"/>
      <stop offset="0.65" stop-color="#834033"/>
      <stop offset="0.78" stop-color="#8b4c3f"/>
      <stop offset="0.89" stop-color="#955d4f"/>
      <stop offset="0.99" stop-color="#a27465"/>
      <stop offset="1" stop-color="#a47768"/>
    </linearGradient>
  </defs>
  <g class="cls-1">
    <g id="레이어_1" data-name="레이어 1">
      <g>
        <path class="cls-2" d="M32.26,32.26H139v87.08a21.33,21.33,0,0,1-21.34,21.33H32.26Z"/>
        <path class="cls-3" d="M97.94,140.67h19.74A21.33,21.33,0,0,0,139,119.34V96.4H97.94Z"/>
        <path class="cls-4" d="M39,5.61h0a8.23,8.23,0,0,0-8.23,8.23v8.9A8.23,8.23,0,0,1,22.51,31H14.24A8.23,8.23,0,0,0,6,39.19H6a8.23,8.23,0,0,0,8.23,8.23h8.27a8.23,8.23,0,0,1,8.22,8.23V81a8.22,8.22,0,0,1-8.22,8.23H14.24A8.23,8.23,0,0,0,6,97.47H6a8.24,8.24,0,0,0,8.23,8.23h8.27a8.22,8.22,0,0,1,8.22,8.23v25.35A8.23,8.23,0,0,0,39,147.51h0a8.22,8.22,0,0,0,8.23-8.23V114a8.23,8.23,0,0,1,8.23-8.23H80.14A8.22,8.22,0,0,1,88.37,114v25.36a8.23,8.23,0,0,0,8.23,8.23h0a8.24,8.24,0,0,0,8.23-8.23V114a8.22,8.22,0,0,1,8.23-8.23h24.72A8.23,8.23,0,0,0,146,97.5h0a8.24,8.24,0,0,0-8.23-8.23H113.06A8.22,8.22,0,0,1,104.83,81V55.65a8.23,8.23,0,0,1,8.23-8.23h24.72A8.23,8.23,0,0,0,146,39.19h0A8.23,8.23,0,0,0,137.78,31H113.06a8.23,8.23,0,0,1-8.23-8.23v-8.9A8.23,8.23,0,0,0,96.6,5.61h0a8.22,8.22,0,0,0-8.23,8.23v8.9A8.23,8.23,0,0,1,80.14,31H55.42a8.24,8.24,0,0,1-8.23-8.23v-8.9A8.22,8.22,0,0,0,39,5.61ZM88.37,81V55.65a8.23,8.23,0,0,0-8.23-8.23H55.42a8.24,8.24,0,0,0-8.23,8.23V81a8.23,8.23,0,0,0,8.23,8.23H80.14A8.22,8.22,0,0,0,88.37,81Z"/>
        <g class="cls-5">
          <path class="cls-6" d="M104.83,22.74V29A1.94,1.94,0,0,0,106.77,31h6.16A8.21,8.21,0,0,1,104.83,22.74Z"/>
          <path class="cls-6" d="M92.59,14.11A6.12,6.12,0,0,1,98.71,8h0a6.12,6.12,0,0,1,6.12,6.12V14a8.23,8.23,0,1,0-16.46-.17v8.9A8.21,8.21,0,0,1,80.27,31H90.63a2,2,0,0,0,2-1.95Z"/>
          <path class="cls-6" d="M143.74,37.44a6.35,6.35,0,0,1-6.45,5.75H106.77a1.94,1.94,0,0,0-1.94,1.94V55.65a8.23,8.23,0,0,1,8.23-8.23h24.36A8.47,8.47,0,0,0,146,40a8.22,8.22,0,0,0-8.19-9h0A6.11,6.11,0,0,1,143.74,37.44Z"/>
          <path class="cls-6" d="M137.76,31l-.13,0h-24.7l.13,0Z"/>
          <path class="cls-6" d="M22.51,31l.13,0H14.18a6.43,6.43,0,0,0-1.32.15A9,9,0,0,1,14.24,31Z"/>
          <path class="cls-6" d="M47.19,138.76a6,6,0,0,0,.12-1.21v-24.8a8.13,8.13,0,0,0-.12,1.21Z"/>
          <path class="cls-6" d="M47.31,112.75a8.21,8.21,0,0,1,8.11-7H80.14A8.22,8.22,0,0,1,88.37,114v25a8.47,8.47,0,0,0,7.42,8.55,8.23,8.23,0,0,0,9-8.19v-1.77a6.12,6.12,0,0,1-6.12,6.12h0a6.12,6.12,0,0,1-6.12-6.12V103.47a2,2,0,0,0-2-2H49.29a2,2,0,0,0-2,2Z"/>
          <path class="cls-6" d="M104.83,81v6.28a2,2,0,0,0,2,2H113A8.22,8.22,0,0,1,104.83,81Z"/>
          <path class="cls-6" d="M47.31,81v6.28a2,2,0,0,0,2,2H55.5A8.23,8.23,0,0,1,47.31,81Z"/>
          <path class="cls-6" d="M47.31,54.82c0-3.67,3.85-7.4,8-7.4h22.9c4.54,0,8.31,5.51,8.31,10V82.83a8.2,8.2,0,0,1-3.16,6.44h7.22a2,2,0,0,0,2-2V45.17a2,2,0,0,0-2-2H49.25a1.94,1.94,0,0,0-1.94,1.94Z"/>
          <path class="cls-6" d="M137.67,89.27h0Z"/>
          <path class="cls-6" d="M137.78,89.27h-.11a6.13,6.13,0,0,1,6.07,6.46,6.35,6.35,0,0,1-6.46,5.78h-30.5a2,2,0,0,0-2,1.95V114a8.22,8.22,0,0,1,8.23-8.23h24.72a8.26,8.26,0,0,0,7.76-11A8.13,8.13,0,0,0,137.78,89.27Z"/>
          <path class="cls-6" d="M80.14,31l.13,0h-25l.13,0Z"/>
          <path class="cls-6" d="M55.29,31a8.2,8.2,0,0,1-8-7v5a2,2,0,0,0,2,2Z"/>
          <path class="cls-6" d="M47.19,22.74a7.87,7.87,0,0,0,.12,1.2V14.11a6.28,6.28,0,0,0-.26-1.69,8.23,8.23,0,0,1,.14,1.42Z"/>
          <path class="cls-6" d="M40.4,143.62a6.3,6.3,0,0,1-5.33-6.34V103.49a2,2,0,0,0-2-2H14.53a6.35,6.35,0,0,1-6.46-5.79,6.12,6.12,0,0,1,6.11-6.45H33.1a2,2,0,0,0,2-2V45.16a2,2,0,0,0-2-2H14.44A6.28,6.28,0,0,1,8.12,37.9a6.12,6.12,0,0,1,4.74-6.8A8.23,8.23,0,0,0,6,39.58a8.47,8.47,0,0,0,8.59,7.84h7.9a8.23,8.23,0,0,1,8.22,8.23V81a8.22,8.22,0,0,1-8.22,8.23H14.6a8.47,8.47,0,0,0-8.55,7.42,8.23,8.23,0,0,0,8.19,9h8.27a8.22,8.22,0,0,1,8.22,8.23v25.35A8.23,8.23,0,0,0,39,147.51h0a8.22,8.22,0,0,0,8.23-8.23v-.52A6.11,6.11,0,0,1,40.4,143.62Z"/>
          <path class="cls-6" d="M35.07,14.34a6.27,6.27,0,0,1,5.17-6.28,6.1,6.1,0,0,1,6.81,4.36A8.21,8.21,0,0,0,39,5.61h0a8.23,8.23,0,0,0-8.23,8.23v8.9A8.21,8.21,0,0,1,22.64,31H33.09a2,2,0,0,0,2-2Z"/>
        </g>
        <ellipse class="cls-7" cx="79.66" cy="68.15" rx="13.9" ry="21.04"/>
        <ellipse class="cls-8" cx="83.61" cy="67.91" rx="9.02" ry="13.65"/>
        <ellipse class="cls-7" cx="113.7" cy="68.08" rx="13.86" ry="20.97"/>
        <ellipse class="cls-8" cx="117.64" cy="67.84" rx="8.99" ry="13.6"/>
      </g>
    </g>
  </g>
</svg>
