<svg xmlns="http://www.w3.org/2000/svg" xmlns:xlink="http://www.w3.org/1999/xlink" viewBox="0 0 151 154">
  <defs>
    <style>
      .cls-1 {
        isolation: isolate;
      }

      .cls-2 {
        fill: #e79854;
      }

      .cls-3 {
        fill: #e3836c;
      }

      .cls-4 {
        fill-rule: evenodd;
        fill: url(#무제_그라디언트_21);
      }

      .cls-5 {
        mix-blend-mode: multiply;
      }

      .cls-6 {
        fill: #eea575;
      }

      .cls-7 {
        fill: #fff;
      }

      .cls-8 {
        fill: #29151a;
      }
    </style>
    <linearGradient id="무제_그라디언트_21" data-name="무제 그라디언트 21" x1="15.99" y1="128.52" x2="127.08" y2="17.43" gradientUnits="userSpaceOnUse">
      <stop offset="0" stop-color="#f0c25b"/>
      <stop offset="0.45" stop-color="#f0c35d"/>
      <stop offset="0.63" stop-color="#f1c564"/>
      <stop offset="0.76" stop-color="#f3c970"/>
      <stop offset="0.87" stop-color="#f5ce82"/>
      <stop offset="0.97" stop-color="#f8d698"/>
      <stop offset="1" stop-color="#f9d9a2"/>
    </linearGradient>
  </defs>
  <g class="cls-1">
    <g id="레이어_1" data-name="레이어 1">
      <g>
        <path class="cls-2" d="M32,32.62H138.81V119.7A21.34,21.34,0,0,1,117.47,141H32Z"/>
        <path class="cls-3" d="M97.73,141h19.74a21.34,21.34,0,0,0,21.34-21.34V96.77H97.73Z"/>
        <path class="cls-4" d="M38.75,6h0a8.23,8.23,0,0,0-8.23,8.23v8.9a8.23,8.23,0,0,1-8.23,8.23H14A8.23,8.23,0,0,0,5.8,39.56h0A8.24,8.24,0,0,0,14,47.79h8.26A8.22,8.22,0,0,1,30.52,56V81.37a8.22,8.22,0,0,1-8.23,8.23H14A8.24,8.24,0,0,0,5.8,97.83h0A8.23,8.23,0,0,0,14,106.06h8.26a8.22,8.22,0,0,1,8.23,8.23v25.36a8.24,8.24,0,0,0,8.23,8.23h0A8.24,8.24,0,0,0,47,139.65V114.32a8.23,8.23,0,0,1,8.23-8.23H79.93a8.24,8.24,0,0,1,8.23,8.23v25.36a8.22,8.22,0,0,0,8.23,8.23h0a8.23,8.23,0,0,0,8.23-8.23V114.32a8.23,8.23,0,0,1,8.22-8.23h24.72a8.22,8.22,0,0,0,8.23-8.22h0a8.22,8.22,0,0,0-8.23-8.23H112.84a8.23,8.23,0,0,1-8.22-8.23V56a8.22,8.22,0,0,1,8.22-8.23h24.72a8.23,8.23,0,0,0,8.23-8.23h0a8.22,8.22,0,0,0-8.23-8.23H112.84a8.23,8.23,0,0,1-8.22-8.23V14.2A8.23,8.23,0,0,0,96.39,6h0a8.22,8.22,0,0,0-8.23,8.23v8.9a8.24,8.24,0,0,1-8.23,8.23H55.21A8.23,8.23,0,0,1,47,23.1V14.2A8.23,8.23,0,0,0,38.75,6Zm49.41,75.4V56a8.23,8.23,0,0,0-8.23-8.23H55.21A8.22,8.22,0,0,0,47,56V81.37a8.22,8.22,0,0,0,8.23,8.23H79.93A8.23,8.23,0,0,0,88.16,81.37Z"/>
        <g class="cls-5">
          <path class="cls-6" d="M104.62,23.1v6.27a2,2,0,0,0,1.94,1.95h6.15A8.23,8.23,0,0,1,104.62,23.1Z"/>
          <path class="cls-6" d="M92.37,14.47a6.12,6.12,0,0,1,6.12-6.12h0a6.13,6.13,0,0,1,6.13,6.12v-.1a8.23,8.23,0,1,0-16.46-.17v8.9a8.23,8.23,0,0,1-8.1,8.22H90.42a2,2,0,0,0,2-2Z"/>
          <path class="cls-6" d="M143.53,37.8a6.36,6.36,0,0,1-6.45,5.76H106.56a1.94,1.94,0,0,0-1.94,1.94V56a8.22,8.22,0,0,1,8.22-8.23h24.37a8.46,8.46,0,0,0,8.54-7.42,8.23,8.23,0,0,0-8.19-9h0A6.11,6.11,0,0,1,143.53,37.8Z"/>
          <path class="cls-6" d="M137.55,31.33h0Z"/>
          <path class="cls-6" d="M22.29,31.33H14a5.83,5.83,0,0,0-1.33.15A8.09,8.09,0,0,1,14,31.33Z"/>
          <path class="cls-6" d="M47,139.12a6,6,0,0,0,.12-1.2v-24.8a7.87,7.87,0,0,0-.12,1.2Z"/>
          <path class="cls-6" d="M47.1,113.12a8.22,8.22,0,0,1,8.11-7H79.93a8.24,8.24,0,0,1,8.23,8.23v25a8.46,8.46,0,0,0,7.42,8.54,8.23,8.23,0,0,0,9-8.19v-1.76A6.13,6.13,0,0,1,98.49,144h0a6.12,6.12,0,0,1-6.12-6.12V103.83a2,2,0,0,0-2-2H49.08a2,2,0,0,0-2,2Z"/>
          <path class="cls-6" d="M104.62,81.41v6.27a2,2,0,0,0,1.95,1.95h6.23A8.22,8.22,0,0,1,104.62,81.41Z"/>
          <path class="cls-6" d="M47.1,81.41v6.27a2,2,0,0,0,1.95,1.95h6.24A8.22,8.22,0,0,1,47.1,81.41Z"/>
          <path class="cls-6" d="M47.1,55.18c0-3.67,3.84-7.39,8-7.39H78c4.55,0,8.32,5.5,8.32,10.05V83.19a8.17,8.17,0,0,1-3.16,6.44H90.4a2,2,0,0,0,2-2V45.53a2,2,0,0,0-2-2H49a1.93,1.93,0,0,0-1.94,1.93Z"/>
          <path class="cls-6" d="M137.45,89.64h0Z"/>
          <path class="cls-6" d="M137.56,89.64h-.11a6.12,6.12,0,0,1,6.08,6.45,6.35,6.35,0,0,1-6.46,5.78H106.56a2,2,0,0,0-1.94,1.95v10.5a8.23,8.23,0,0,1,8.22-8.23h24.72a8.25,8.25,0,0,0,7.77-11A8.13,8.13,0,0,0,137.56,89.64Z"/>
          <path class="cls-6" d="M79.93,31.33h0Z"/>
          <path class="cls-6" d="M55.08,31.32a8.21,8.21,0,0,1-8-7v5a2,2,0,0,0,2,2Z"/>
          <path class="cls-6" d="M47,23.1a8.13,8.13,0,0,0,.12,1.21V14.47a6.15,6.15,0,0,0-.26-1.68A8.12,8.12,0,0,1,47,14.2Z"/>
          <path class="cls-6" d="M40.19,144a6.31,6.31,0,0,1-5.33-6.34v-33.8a2,2,0,0,0-2-2H14.32a6.35,6.35,0,0,1-6.46-5.79A6.12,6.12,0,0,1,14,89.63H32.89a2,2,0,0,0,2-2V45.53a2,2,0,0,0-2-2H14.23A6.31,6.31,0,0,1,7.9,38.27a6.12,6.12,0,0,1,4.74-6.8A8.2,8.2,0,0,0,5.81,40a8.48,8.48,0,0,0,8.59,7.84h7.89A8.22,8.22,0,0,1,30.52,56V81.37a8.22,8.22,0,0,1-8.23,8.23H14.38A8.47,8.47,0,0,0,5.84,97a8.23,8.23,0,0,0,8.19,9h8.26a8.22,8.22,0,0,1,8.23,8.23v25.36a8.24,8.24,0,0,0,8.23,8.23h0A8.24,8.24,0,0,0,47,139.65v-.53A6.13,6.13,0,0,1,40.19,144Z"/>
          <path class="cls-6" d="M34.86,14.71A6.28,6.28,0,0,1,40,8.42a6.1,6.1,0,0,1,6.81,4.37A8.23,8.23,0,0,0,38.75,6h0a8.23,8.23,0,0,0-8.23,8.23v8.9a8.23,8.23,0,0,1-8.1,8.22H32.88a2,2,0,0,0,2-2Z"/>
        </g>
        <ellipse class="cls-7" cx="79.45" cy="68.51" rx="13.9" ry="21.04"/>
        <ellipse class="cls-8" cx="83.4" cy="68.28" rx="9.02" ry="13.65"/>
        <ellipse class="cls-7" cx="113.49" cy="68.44" rx="13.86" ry="20.97"/>
        <ellipse class="cls-8" cx="117.42" cy="68.2" rx="8.99" ry="13.6"/>
      </g>
    </g>
  </g>
</svg>
